<svg width="40" height="40" viewBox="0 0 60 60" fill="none" xmlns="http://www.w3.org/2000/svg">
<g clip-path="url(#clip0_163_11)">
<circle cx="30" cy="30" r="30" fill="#FEF1D6"/>
<path d="M30 15C21.75 15 15 21.75 15 30C15 38.25 21.75 45 30 45C38.25 45 45 38.25 45 30C45 21.75 38.25 15 30 15Z" fill="#F9BB60" fill-opacity="0.7"/>
<path d="M30 3.75C44.625 3.75 56.25 15.375 56.25 30C56.25 44.625 44.625 56.25 30 56.25C15.375 56.25 3.75 44.625 3.75 30C3.75 15.375 15.375 3.75 30 3.75ZM30 0C13.5 0 0 13.5 0 30C0 46.5 13.5 60 30 60C46.5 60 60 46.5 60 30C60 13.5 46.5 0 30 0Z" fill="#FCDEAC"/>
</g>
<defs>
<clipPath id="clip0_163_11">
<rect width="60" height="60" fill="white"/>
</clipPath>
</defs>
</svg>
