<svg width="50" height="50" viewBox="0 0 50 50" fill="none" xmlns="http://www.w3.org/2000/svg">
<path d="M25 0C25.9492 0 26.7337 0.705385 26.8579 1.62057L26.875 1.875L26.8727 6.34427C35.732 7.21894 42.7811 14.268 43.658 23.1313L43.75 23.125H48.125C49.1605 23.125 50 23.9645 50 25C50 25.9492 49.2946 26.7337 48.3794 26.8579L48.125 26.875L43.6541 26.8726C42.7811 35.732 35.732 42.7811 26.8687 43.658L26.875 43.75V48.125C26.875 49.1605 26.0355 50 25 50C24.0508 50 23.2663 49.2946 23.1421 48.3794L23.125 48.125L23.1274 43.6541C14.268 42.7811 7.21894 35.732 6.34195 26.8687L6.25 26.875H1.875C0.839466 26.875 0 26.0355 0 25C0 24.0508 0.705385 23.2663 1.62057 23.1421L1.875 23.125L6.34427 23.1273C7.21894 14.268 14.268 7.21894 23.1313 6.34195L23.125 6.25V1.875C23.125 0.839466 23.9645 0 25 0ZM25 10C16.7157 10 10 16.7157 10 25C10 33.2843 16.7157 40 25 40C33.2843 40 40 33.2843 40 25C40 16.7157 33.2843 10 25 10ZM25 15C30.5228 15 35 19.4772 35 25C35 30.5228 30.5228 35 25 35C19.4772 35 15 30.5228 15 25C15 19.4772 19.4772 15 25 15Z" fill="#0F766E"/>
</svg>
